<svg width="776" height="484" viewBox="0 0 776 484" fill="none" xmlns="http://www.w3.org/2000/svg">
<path d="M497.678 -1.2929e-06L457.139 37.3886L494.456 78.0057L534.996 40.6171L497.678 -1.2929e-06Z" fill="#FFC444"/>
<path d="M497.679 0.000836627L457.139 37.3895L464.654 45.5695L505.194 8.18082L497.679 0.000836627Z" fill="#D1A035"/>
<path d="M335.664 70.4809L382.849 77.224L351.536 55.8398L349.946 62.6956L338.47 64.7769L335.664 70.4809Z" fill="#4D9378"/>
<path d="M382.847 77.224L343.583 56.9396L305.1 55.0027L382.847 77.224Z" fill="#53CD9F"/>
<path d="M351.535 55.8398L382.847 77.224L358.608 43.8054L351.535 55.8398Z" fill="#53CD9F"/>
<path d="M599.509 163.739L587.642 172.275L575.711 163.832C577.054 161.926 578.833 160.369 580.899 159.292C582.965 158.215 585.257 157.648 587.586 157.639C589.915 157.63 592.212 158.179 594.286 159.24C596.36 160.301 598.151 161.844 599.509 163.739Z" fill="#FFE1E4"/>
<path d="M587.643 136.847C581.98 136.847 576.399 138.212 571.374 140.829C566.348 143.446 562.026 147.237 558.771 151.881L566.306 157.178C568.705 153.765 571.884 150.978 575.579 149.049C579.274 147.12 583.376 146.105 587.542 146.09C591.708 146.075 595.817 147.06 599.526 148.962C603.234 150.865 606.434 153.63 608.857 157.025L616.348 151.636C613.082 147.061 608.774 143.334 603.782 140.762C598.789 138.19 593.257 136.848 587.643 136.847Z" fill="#FFE1E4"/>
<path d="M587.643 97.3236C562.401 97.3236 540.078 109.892 526.562 129.117L534.094 134.414C540.117 125.845 548.1 118.845 557.376 114C566.652 109.155 576.952 106.607 587.412 106.568C597.873 106.528 608.191 108.999 617.503 113.774C626.816 118.549 634.851 125.489 640.938 134.013L648.409 128.623C641.5 118.935 632.381 111.04 621.811 105.596C611.242 100.152 599.527 97.3156 587.643 97.3236Z" fill="#FFE1E4"/>
<path d="M587.642 118.95C579.11 118.947 570.702 120.993 563.122 124.917C555.542 128.841 549.011 134.527 544.076 141.501L551.607 146.798C555.683 141.066 561.062 136.389 567.299 133.152C573.536 129.915 580.452 128.213 587.476 128.184C594.5 128.156 601.43 129.803 607.692 132.99C613.955 136.176 619.371 140.81 623.492 146.509L630.966 141.16C626.018 134.283 619.51 128.682 611.977 124.821C604.444 120.959 596.103 118.947 587.642 118.95Z" fill="#FFE1E4"/>
<path d="M341.466 215.517L330.587 215.266C334.082 219.804 334.868 223.986 332.69 227.525C330.515 231.137 325.306 234.101 317.53 236.353C326.936 211.061 328.891 183.593 323.161 157.22C317.431 130.847 304.258 106.679 285.209 87.5928C259.161 61.4976 223.95 46.3485 185.856 46.3485C164.787 46.3005 143.981 51.0285 124.994 60.1784H124.977C118.927 58.328 113.046 56.8154 107.368 55.6608C78.6945 49.8327 58.3479 53.8624 50.0847 67.0053C42.2192 79.5073 46.5006 98.3282 62.1077 120.275C58.4183 127.154 55.3037 134.327 52.7959 141.72C23.4659 143.495 7.77516 148.665 2.06185 158.03C-4.56477 168.932 4.48778 183.562 33.4894 197.787C37.4855 199.753 41.7669 201.684 46.2615 203.612C49.7361 234.211 63.6434 263.848 86.4678 286.716C99.2804 299.553 114.443 309.795 131.126 316.881C182.381 338.531 243.49 328.402 285.203 286.716C297.696 274.223 307.718 259.476 314.741 243.252C329.046 240.284 338.464 235.64 342.21 229.491C344.82 225.236 344.5 220.519 341.466 215.517ZM307.898 238.57C298.373 240.284 286.494 241.286 272.616 241.43C251.082 241.693 226.35 239.987 200.299 236.546C202.49 231.762 204.637 226.855 206.738 221.824C214.408 224.426 222.23 226.557 230.159 228.204C238.733 229.95 246.561 230.802 253.545 230.802C269.919 230.802 281.648 226.065 287.442 216.851C288.396 215.334 289.177 213.715 289.773 212.024H281.417C281.279 212.278 281.129 212.529 280.979 212.775C276.675 219.619 267.058 223.166 253.554 223.166C247.097 223.166 239.745 222.358 231.657 220.716C224.197 219.168 216.835 217.172 209.614 214.74C211.621 209.706 213.573 204.576 215.471 199.349C220.559 185.294 224.915 171.349 228.436 157.983C256.988 162.201 286.82 162.313 315.475 160.16C317.297 169.036 318.211 178.074 318.204 187.136C318.243 204.799 314.738 222.29 307.898 238.57ZM134.01 308.366C129.95 306.89 127.89 301.054 126.876 296.418C125.274 289.089 124.983 278.795 126.037 266.651C126.57 260.508 127.426 253.976 128.581 247.146C145.354 251.633 161.783 257.325 177.74 264.177C174.127 270.421 170.473 276.208 166.82 281.456C159.856 291.456 153.048 299.169 147.13 303.764C143.385 306.686 138.069 309.841 134.01 308.366ZM181.416 257.653C164.713 250.432 147.501 244.46 129.918 239.785C130.531 236.611 131.203 233.387 131.935 230.112C136.783 231.218 141.699 232.286 146.684 233.316C161.254 236.301 175.783 238.838 190.022 240.888C187.206 246.73 184.337 252.319 181.416 257.653ZM149.896 228.025C144.266 226.87 138.722 225.66 133.263 224.393C135.83 213.69 138.985 202.533 142.667 191.165C161.804 202.951 181.275 212.526 199.694 219.345C197.389 224.873 195.019 230.253 192.583 235.484C178.587 233.472 164.264 230.978 149.896 228.025ZM103.155 83.5601C113.801 105.398 134.292 123.387 156.356 135.312C151.008 146.98 145.92 159.435 141.238 172.365C140.364 174.776 139.514 177.181 138.689 179.581C110.741 161.349 87.0584 140.427 71.532 120.177C79.7522 106.139 90.4703 93.728 103.155 83.5601ZM222.708 63.3566C226.768 64.8316 228.828 70.6684 229.842 75.3043C231.444 82.6335 231.732 92.9128 230.678 105.071C229.525 118.367 226.869 133.467 222.913 149.543C203.471 146.191 184.041 140.666 166.154 131.966C173.778 116.038 181.839 101.83 189.901 90.2542C196.862 80.2549 203.67 72.5418 209.588 67.9463C212.676 65.5475 216.834 62.9813 220.473 62.9813C221.234 62.9744 221.991 63.1015 222.708 63.3566ZM221.058 156.788C217.626 169.726 213.399 183.201 208.473 196.806C206.573 202.052 204.611 207.207 202.586 212.272C184.101 205.457 164.452 195.732 145.145 183.709C146.144 180.788 147.174 177.857 148.237 174.916C152.812 162.276 157.779 150.112 162.985 138.718C181.22 147.566 200.944 153.278 221.058 156.788ZM279.429 93.3487C295.898 109.794 307.736 130.309 313.744 152.813C283.233 155.048 255.274 154.346 230.283 150.723C234.247 134.486 236.91 119.213 238.091 105.724C239.382 90.8287 239.226 73.1827 233.193 63.2526C250.554 69.9003 266.312 80.1575 279.429 93.3487ZM185.856 54.4859C194.928 54.4774 203.977 55.4011 212.861 57.2427C202.463 61.7891 191.846 74.4037 183.787 85.9849C175.538 97.8201 167.301 112.328 159.525 128.557C138.53 117.126 118.699 99.6069 109.223 78.9675C131.6 63.0118 158.39 54.4532 185.856 54.4859ZM56.5385 71.0927C60.8429 64.2485 70.4573 60.7182 83.9612 60.7182C90.4207 60.7182 97.7705 61.5235 105.858 63.1689C108.931 63.7905 112.06 64.5228 115.245 65.3657C95.9669 76.5369 78.9855 92.705 66.343 112.972C54.4093 95.2308 50.8223 80.177 56.5385 71.0927ZM67.5589 127.518C83.9093 147.993 108.01 168.924 136.168 187.078C132.174 199.254 128.769 211.219 126.02 222.684C102.683 217.027 75.5368 209.022 54.1068 199.938C51.6439 175.008 56.3095 149.891 67.5589 127.518ZM39.9834 193.57C14.6899 181.209 3.13076 169.264 8.30529 160.795C12.4772 153.931 27.6752 149.286 50.9462 147.568C46.2586 163.425 44.6279 179.899 45.5959 196.214C43.6569 195.354 41.8014 194.465 39.9834 193.57ZM124.689 228.42C123.967 231.646 123.3 234.821 122.69 237.946C121.068 237.552 119.444 237.167 117.818 236.791C90.3602 230.527 69.7572 229.254 60.1947 229.041C57.829 221.906 56.087 214.58 54.9884 207.143C73.7072 214.362 94.7655 221.276 124.692 228.42H124.689ZM62.975 236.615C73.1627 237.025 92.0457 238.57 116.17 244.072C117.898 244.468 119.627 244.877 121.356 245.298C120.114 252.555 119.198 259.486 118.633 266.004C117.561 278.35 117.48 292.584 120.921 302.748C94.6964 287.907 74.2723 264.593 62.9865 236.615H62.975ZM145.716 313.57C155.512 308.429 165.348 296.617 172.925 285.737C176.832 280.123 180.739 273.902 184.594 267.208C206.977 277.385 228.305 289.749 248.267 304.119C232.667 312.469 215.557 317.606 197.945 319.229C180.333 320.852 162.574 318.928 145.716 313.57ZM279.429 280.925C272.179 288.221 264.097 294.638 255.352 300.043C234.379 284.668 211.894 271.478 188.247 260.678C191.477 254.752 194.658 248.494 197.755 241.961C219.245 244.813 239.903 246.525 258.766 246.97C263.69 247.111 268.47 247.111 273.105 247.077C285.128 246.932 295.832 246.211 305 244.932C298.559 258.286 289.914 270.455 279.429 280.925Z" fill="#01B4BC"/>
<path d="M276.426 237.499L256.993 469.007C256.993 469.007 254.956 483.042 265.374 483.065C282.506 483.105 350.636 483.065 350.636 483.065C350.636 483.065 337.746 480.144 337.901 473.571C338.086 465.823 360.613 235.313 360.613 235.313L276.426 237.499Z" fill="#D86713"/>
<path d="M356.167 478.847C352.799 478.847 287.726 479.061 271.044 478.847C263.772 478.758 262.498 472.373 262.438 468.239C262.414 467.086 262.488 465.933 262.657 464.792L263.164 458.777L264.452 443.44L265.604 429.89L267.065 412.481L268.295 397.785L282.09 233.287L366.277 231.096C366.277 231.096 356.789 327.565 350.079 397.785C349.33 405.608 348.616 413.11 347.956 420.113C347.743 422.347 347.537 424.53 347.339 426.663C346.717 433.302 346.146 439.407 345.651 444.794C345.392 447.634 345.152 450.266 344.934 452.689C344.069 462.157 343.574 468.204 343.568 469.353C343.561 469.982 343.616 470.611 343.732 471.229C345.112 478.608 354.902 478.847 356.167 478.847Z" fill="#F99746"/>
<path d="M71.9727 111.514L119.307 302.012L125.787 328.101L147.833 416.828H557.419L476.159 111.514H71.9727Z" fill="#F99746"/>
<path d="M71.9705 111.514L65.4102 113.705L139.113 423.456L147.834 416.828L71.9705 111.514Z" fill="#EE9849"/>
<path d="M139.111 423.455H546.176L557.416 416.828H147.833L139.111 423.455Z" fill="#D86713"/>
<path d="M282.059 483.136H370.193V478.939H282.059V483.136Z" fill="#F1A34F"/>
<path d="M537.577 360.57L471.115 115.55H71.3164V111.514H476.16L542.398 360.025L537.577 360.57Z" fill="#F1A34F"/>
<path d="M347.792 423.452L347.337 426.662L264.449 443.439L265.587 429.89L266.129 423.452H347.792Z" fill="#D86713"/>
<path opacity="0.4" d="M356.165 478.847C352.797 478.847 287.723 479.061 271.042 478.847C263.77 478.757 262.496 472.372 262.436 468.239L344.931 452.688C344.067 462.156 343.571 468.204 343.566 469.353C343.559 469.982 343.614 470.611 343.73 471.229C345.11 478.607 354.9 478.847 356.165 478.847Z" fill="#D86713"/>
<path opacity="0.4" d="M327.758 355.022L147.834 416.828L125.787 328.101L327.758 355.022Z" fill="#D86713"/>
<path d="M71.9688 111.514H476.158L541.739 356.89H130.859L71.9688 111.514Z" fill="#FFB268"/>
<path d="M363.485 387.909C362.332 381.891 356.504 377.012 350.496 377.012C344.489 377.012 340.568 381.891 341.735 387.909C342.902 393.928 348.719 398.806 354.723 398.806C360.727 398.806 364.651 393.928 363.485 387.909Z" fill="#D86713"/>
<path d="M522.678 346.258H144.234L101.375 175.199L98.093 162.082L95.2867 150.894L93.0452 141.937L88.7148 124.657H461.702L461.964 125.607L466.453 141.937L468.919 150.894L471.999 162.082L475.609 175.199L522.678 346.258Z" fill="#E9F3FE"/>
<path d="M522.678 346.842H144.234L101.375 175.785L98.093 162.668L95.2867 151.48L93.0452 142.52L88.7148 125.243H461.702L461.964 126.193L466.453 142.52L468.919 151.48L471.999 162.668L475.609 175.785L522.678 346.842Z" fill="#FFF5F6"/>
<path d="M466.453 141.937H93.0452L88.7148 124.657H461.561L461.964 125.607L466.453 141.937Z" fill="#FF9396"/>
<path d="M99.0899 133.291C98.6375 131.478 99.7381 130.012 101.547 130.012C103.357 130.012 105.186 131.478 105.636 133.291C106.085 135.104 104.988 136.57 103.178 136.57C101.369 136.57 99.5393 135.107 99.0899 133.291Z" fill="#E9F3FE"/>
<path d="M116.02 135.759C117.077 134.56 116.689 132.488 115.154 131.129C113.619 129.771 111.518 129.642 110.462 130.84C109.405 132.039 109.793 134.111 111.328 135.47C112.863 136.828 114.964 136.957 116.02 135.759Z" fill="#E9F3FE"/>
<path d="M121.679 133.291C121.229 131.478 122.327 130.012 124.136 130.012C125.946 130.012 127.775 131.478 128.225 133.291C128.674 135.104 127.576 136.57 125.767 136.57C123.958 136.57 122.131 135.107 121.679 133.291Z" fill="#E9F3FE"/>
<path d="M262.122 346.842H224.701C224.344 343.912 224.027 340.814 223.745 337.584C223.241 331.788 222.858 325.556 222.572 319.069C222.505 317.574 222.445 316.066 222.391 314.546C222.319 312.612 222.255 310.655 222.201 308.689C222.111 305.349 222.039 301.972 221.987 298.586C221.987 298.586 221.987 298.586 221.987 298.571C221.924 294.241 221.89 289.88 221.881 285.532C221.881 284.447 221.881 283.364 221.881 282.282C221.881 281.263 221.881 280.261 221.881 279.237C221.915 269.884 222.054 260.71 222.253 252.18C222.685 233.307 223.382 217.581 223.754 210.035C223.903 206.929 224.001 205.206 224.001 205.206C224.088 205.22 224.655 205.324 225.549 205.541C226.203 205.7 227.035 205.919 227.98 206.21C228.845 206.467 229.778 206.788 230.769 207.163C232.578 207.848 234.322 208.692 235.981 209.686L236.059 209.724C238.854 211.456 241.378 213.765 242.527 216.807C243.515 219.391 245.829 233.278 248.621 251.736C248.701 252.261 248.779 252.792 248.86 253.326C250.338 263.121 251.934 274.11 253.539 285.333C255.239 297.226 256.936 309.373 258.5 320.625C259.849 330.241 261.085 339.232 262.122 346.842Z" fill="#FF7E82"/>
<path d="M251.643 346.841H208.086C207.251 343.242 206.47 339.769 205.781 336.513C203.868 327.535 202.612 320.177 202.678 316.226C202.673 315.394 202.842 314.571 203.174 313.81C203.507 313.049 203.995 312.366 204.609 311.806C205.52 310.994 206.578 310.365 207.726 309.953C211.402 308.556 216.681 308.325 222.207 308.68C224.085 308.795 225.99 308.969 227.868 309.208C234.595 310.072 241.262 311.349 247.832 313.033C247.832 313.033 248.474 315.631 249.232 320.189C249.808 323.601 250.439 328.116 250.911 333.45C251.2 336.545 251.407 339.922 251.531 343.519C251.563 344.607 251.6 345.715 251.643 346.841Z" fill="#282828"/>
<path d="M231.528 316.277L231.096 319.43L228.984 334.729L228.626 337.344L227.318 346.841H181.926C181.575 340.568 181.249 334.457 181.186 329.129C181.186 328.551 181.186 327.974 181.186 327.397C181.186 319.372 181.889 313.423 184.185 311.922C186.778 310.218 195.421 310.686 204.609 311.812C205.525 311.924 206.447 312.046 207.372 312.17C212.728 312.891 218.09 313.783 222.4 314.551C224.636 314.95 226.589 315.316 228.111 315.605C230.246 316.015 231.528 316.277 231.528 316.277Z" fill="#C65447"/>
<path d="M181.177 213.066C181.177 213.066 206.113 196.901 223.999 205.171C226.851 206.488 230.101 210.162 232.429 212.731C238.895 219.87 251.52 333.257 251.52 333.257C251.52 333.257 215.655 345.427 181.168 329.126L181.177 213.066Z" fill="#FFE6C0"/>
<path d="M225.42 204.761C225.42 204.761 250.656 215.127 254.084 223.094C257.513 231.061 268.617 279.961 268.617 285.706C268.617 291.45 249.267 286.987 246.144 277.736C243.551 270.054 234.833 246.456 230.231 231.532L225.42 204.761Z" fill="#FF7E82"/>
<path d="M220.175 212.674C214.663 213.756 206.567 212.601 200.641 208.687C203.317 202.282 204.412 197.227 204.804 193.965C204.827 193.792 204.844 193.625 204.862 193.46C205.01 192.341 205.032 191.209 204.928 190.086H219.178C219.178 190.086 223.073 191.87 223.073 193.105C223.073 193.763 223.073 194.395 223.091 194.996C223.119 196.638 223.183 198.073 223.269 199.303C223.54 203.309 223.998 205.194 223.998 205.194C223.998 205.194 225.741 211.568 220.175 212.674Z" fill="#FFB27D"/>
<path d="M223.285 199.28C212.49 201.37 206.226 195.461 204.82 193.942C204.621 193.726 204.518 193.599 204.518 193.599C204.633 193.541 204.751 193.489 204.878 193.437C208.894 191.809 218.013 193.105 223.107 194.973C223.121 196.615 223.184 198.05 223.285 199.28Z" fill="#E2915A"/>
<path d="M201.279 187.716C203.21 198.108 216.604 197.776 222.392 197.123C224.023 196.941 225.049 196.734 225.049 196.734C226.884 196.24 227.91 193.342 228.385 189.546C229.33 182.041 228.137 170.999 226.87 168.185C224.962 163.939 221.369 159.346 207.88 162.66C194.39 165.974 198.796 174.391 201.279 187.716Z" fill="#FFB27D"/>
<path d="M227.37 162.377C225.526 159.819 221.608 156.693 218.067 154.771C210.441 150.634 200.677 154.901 200.636 154.918C189.619 159.77 186.741 168.217 192.569 181.374C198.749 195.287 204.63 193.723 204.63 193.723C204.63 193.723 203.382 192.943 203.494 188.608C203.494 188.36 203.512 188.155 203.52 187.978C203.557 187.539 203.493 187.098 203.334 186.687C203.176 186.276 202.926 185.906 202.604 185.606C201.236 184.382 200.567 180.681 201.714 179.651C203.097 178.406 205.039 179.916 205.658 181.077C205.776 181.277 205.934 181.452 206.122 181.588C206.31 181.725 206.525 181.822 206.752 181.872C206.979 181.923 207.214 181.926 207.442 181.881C207.67 181.837 207.887 181.745 208.078 181.613C211.507 179.44 209.28 175.095 212.556 172.437C215.831 169.778 222.484 172.012 227.399 169.894C233.844 167.492 228.759 164.302 227.37 162.377Z" fill="#233862"/>
<path d="M229.142 346.842H174.844C175.23 335.561 175.731 322.092 176.256 308.449C176.388 304.916 176.544 301.363 176.665 297.841C176.728 296.349 176.783 294.865 176.84 293.384C178.05 263.103 179.232 235.767 179.491 234.283C180.067 230.952 180.6 228.111 181.185 225.649C182.888 218.473 185.008 214.541 189.633 211.155C190.082 210.812 193.782 208.947 197.037 207.322C199.699 205.997 202.065 204.842 202.137 204.808C202.676 205.07 203.269 205.821 203.894 206.935C204.644 208.333 205.3 209.779 205.856 211.265C208.337 217.65 211.016 227.43 212.878 234.728C212.878 234.728 212.878 234.742 212.878 234.751C214.076 239.465 214.938 243.122 215.183 244.19C215.6 245.968 216.148 249.406 216.796 254.065V254.08C217.66 260.43 218.721 269.055 219.83 278.838C219.942 279.846 220.058 280.859 220.17 281.887C220.302 283.061 220.435 284.245 220.57 285.446C220.611 285.83 220.654 286.217 220.694 286.6C221.121 290.474 221.559 294.469 221.976 298.537C221.976 298.537 221.976 298.537 221.976 298.551C222.339 301.903 227.413 304.324 227.767 307.742C227.793 307.99 227.819 308.496 227.851 309.186C227.917 310.629 227.995 312.921 228.09 315.568C228.128 316.748 228.171 317.998 228.217 319.277C228.416 324.955 228.661 331.176 228.937 334.166C228.937 334.308 228.963 334.487 228.972 334.706C229.006 335.304 229.032 336.184 229.055 337.287C229.11 339.665 229.133 343.02 229.142 346.842Z" fill="#FF7E82"/>
<path d="M192.102 246.491C192.084 246.56 191.237 277.115 214.177 280.842C237.117 284.568 221.875 285.532 221.875 285.532C221.875 285.532 178.713 283.685 178.001 282.53C177.29 281.376 192.102 246.491 192.102 246.491Z" fill="#F17A7D"/>
<path d="M211.472 293.941C211.472 293.941 211.043 294.247 210.216 294.781L210.172 294.807C206.672 297.047 196.285 303.146 181.162 307.239C179.576 307.67 177.936 308.076 176.244 308.455C176.38 304.919 176.532 301.371 176.656 297.846C174.745 297.708 172.845 297.445 170.969 297.058C171.029 296.594 171.093 296.129 171.153 295.664C173.075 294.873 174.988 294.111 176.832 293.389C178.333 292.812 179.788 292.235 181.154 291.721C187.368 289.357 191.972 287.755 191.972 287.755L210.36 293.591L211.472 293.941Z" fill="#F17A7D"/>
<path d="M216.348 293.43C216.348 293.43 213.986 294.007 210.226 294.781C210.213 294.778 210.199 294.778 210.186 294.781C203.251 296.178 191.588 298.135 181.173 298.031C179.637 298.014 178.127 297.953 176.667 297.838C174.756 297.7 172.856 297.437 170.979 297.05C167.173 296.247 163.984 294.885 161.898 292.755C146.406 276.953 170.354 220.205 175.387 214.694C181.268 208.248 191.997 205.985 197.921 205.209L198.635 205.119C200.718 204.871 202.055 204.831 202.13 204.831C202.13 204.831 201.666 206.326 200.888 208.872C200.6 209.856 200.234 210.994 199.851 212.264C196.212 224.206 189.191 247.671 186.094 260.903C184.961 265.747 184.365 269.217 184.63 270.253C185.829 274.736 198.359 277.063 206.285 278.09C209.592 278.521 212.105 278.723 212.664 278.766H212.782L213.24 280.651L214.352 285.177L215.432 289.617L216.348 293.43Z" fill="#FF7E82"/>
<path d="M259.563 320.634L206.352 318.385L217.147 251.946L270.359 254.192L259.563 320.634Z" fill="#53CD9F"/>
<path d="M212.789 278.777C212.789 278.777 223.147 278.053 223.668 280.472C224.878 286.109 214.763 290.74 211.484 290.425C208.205 290.11 210.406 278.396 212.789 278.777Z" fill="#FFB27D"/>
<path d="M267.449 267.684C267.449 267.684 257.538 264.581 256.475 266.818C253.994 272.014 262.767 278.873 266.029 279.323C269.29 279.773 269.855 267.872 267.449 267.684Z" fill="#FFB27D"/>
<path d="M203.209 201.468C203.209 201.468 198.85 203.549 196.666 206.69C196.666 206.69 212.956 235.025 212.881 234.759C212.806 234.494 207.375 205.096 203.209 201.468Z" fill="#F76367"/>
<path d="M223.494 201.866C224.935 202.409 227.68 205.235 228.303 206.796L230.239 231.532C230.239 231.532 226.104 213.378 223.998 205.168C223.7 204.092 223.531 202.983 223.494 201.866Z" fill="#F76367"/>
<path d="M234.787 252.691C234.787 252.691 235.208 250.846 237.631 251.063C240.054 251.279 253.659 251.946 253.659 251.946C253.659 251.946 256.283 251.903 256.041 253.589L234.787 252.691Z" fill="#C65447"/>
<path d="M471.316 210.74L432.012 210.884L419.266 161.996L458.57 161.849L471.316 210.74Z" fill="#E0E0E0"/>
<path d="M448.824 168.274L432.344 168.335L432.154 167.61L448.634 167.55L448.824 168.274Z" fill="#ADCBF9"/>
<path d="M451.454 170.283L430.762 170.361L430.574 169.637L451.267 169.559L451.454 170.283Z" fill="#ADCBF9"/>
<path d="M457.144 180.234L430.265 180.332L430.078 179.61L456.953 179.509L457.144 180.234Z" fill="#ADCBF9"/>
<path d="M457.767 182.618L430.888 182.716L430.701 181.992L457.576 181.893L457.767 182.618Z" fill="#ADCBF9"/>
<path d="M458.386 184.999L431.51 185.101L431.32 184.376L458.199 184.278L458.386 184.999Z" fill="#ADCBF9"/>
<path d="M459.009 187.384L432.134 187.485L431.943 186.76L458.819 186.659L459.009 187.384Z" fill="#ADCBF9"/>
<path d="M459.63 189.768L432.752 189.866L432.564 189.145L459.44 189.044L459.63 189.768Z" fill="#ADCBF9"/>
<path d="M461.144 195.57L434.265 195.668L434.078 194.944L460.953 194.846L461.144 195.57Z" fill="#ADCBF9"/>
<path d="M461.763 197.952L434.887 198.053L434.697 197.328L461.576 197.23L461.763 197.952Z" fill="#ADCBF9"/>
<path d="M462.386 200.336L435.51 200.437L435.32 199.713L462.196 199.612L462.386 200.336Z" fill="#ADCBF9"/>
<path d="M463.007 202.721L436.129 202.819L435.941 202.097L462.817 201.996L463.007 202.721Z" fill="#ADCBF9"/>
<path d="M463.627 205.105L436.752 205.203L436.564 204.479L463.44 204.38L463.627 205.105Z" fill="#ADCBF9"/>
<path d="M487.154 271.489L447.85 271.636L435.104 222.745L474.411 222.601L487.154 271.489Z" fill="#FFB268"/>
<path d="M464.661 229.024L448.18 229.084L447.99 228.362L464.473 228.302L464.661 229.024Z" fill="#ADCBF9"/>
<path d="M467.292 231.033L446.602 231.111L446.412 230.386L467.105 230.311L467.292 231.033Z" fill="#ADCBF9"/>
<path d="M472.981 240.983L446.106 241.084L445.916 240.359L472.794 240.261L472.981 240.983Z" fill="#ADCBF9"/>
<path d="M473.603 243.367L446.724 243.465L446.537 242.744L473.412 242.643L473.603 243.367Z" fill="#ADCBF9"/>
<path d="M474.225 245.752L447.349 245.85L447.162 245.128L474.037 245.027L474.225 245.752Z" fill="#ADCBF9"/>
<path d="M474.847 248.136L447.971 248.234L447.781 247.51L474.66 247.411L474.847 248.136Z" fill="#ADCBF9"/>
<path d="M475.468 250.517L448.59 250.618L448.402 249.894L475.278 249.796L475.468 250.517Z" fill="#ADCBF9"/>
<path d="M476.982 256.319L450.103 256.418L449.916 255.696L476.791 255.595L476.982 256.319Z" fill="#ADCBF9"/>
<path d="M477.6 258.704L450.724 258.802L450.537 258.077L477.412 257.979L477.6 258.704Z" fill="#ADCBF9"/>
<path d="M478.222 261.088L451.346 261.186L451.156 260.462L478.034 260.364L478.222 261.088Z" fill="#ADCBF9"/>
<path d="M478.845 263.47L451.967 263.571L451.779 262.846L478.655 262.748L478.845 263.47Z" fill="#ADCBF9"/>
<path d="M479.465 265.854L452.59 265.955L452.402 265.23L479.278 265.132L479.465 265.854Z" fill="#ADCBF9"/>
<path d="M503.102 332.648L463.795 332.795L451.049 283.904L490.356 283.76L503.102 332.648Z" fill="#1487E3"/>
<path d="M480.606 290.182L464.126 290.243L463.936 289.521L480.419 289.461L480.606 290.182Z" fill="#ADCBF9"/>
<path d="M483.237 292.191L462.548 292.269L462.357 291.545L483.05 291.47L483.237 292.191Z" fill="#ADCBF9"/>
<path d="M488.925 302.142L462.05 302.243L461.859 301.518L488.737 301.42L488.925 302.142Z" fill="#ADCBF9"/>
<path d="M489.548 304.526L462.67 304.624L462.482 303.902L489.358 303.804L489.548 304.526Z" fill="#ADCBF9"/>
<path d="M490.171 306.91L463.293 307.008L463.105 306.287L489.981 306.186L490.171 306.91Z" fill="#ADCBF9"/>
<path d="M490.79 309.295L463.915 309.393L463.725 308.668L490.603 308.57L490.79 309.295Z" fill="#ADCBF9"/>
<path d="M491.413 311.676L464.538 311.777L464.348 311.053L491.223 310.954L491.413 311.676Z" fill="#ADCBF9"/>
<path d="M492.925 317.478L466.05 317.576L465.859 316.855L492.735 316.754L492.925 317.478Z" fill="#ADCBF9"/>
<path d="M493.548 319.863L466.67 319.961L466.482 319.239L493.358 319.138L493.548 319.863Z" fill="#ADCBF9"/>
<path d="M494.167 322.247L467.292 322.345L467.102 321.621L493.98 321.522L494.167 322.247Z" fill="#ADCBF9"/>
<path d="M494.79 324.628L467.915 324.729L467.725 324.005L494.6 323.907L494.79 324.628Z" fill="#ADCBF9"/>
<path d="M495.411 327.013L468.533 327.114L468.346 326.389L495.221 326.291L495.411 327.013Z" fill="#ADCBF9"/>
<path d="M451.42 333.061L313.949 333.569L274.385 181.813L292.291 162.489L406.84 162.068L451.42 333.061Z" fill="#FF7E55"/>
<path d="M368.972 187.713L320.523 187.892L319.967 185.767L368.416 185.588L368.972 187.713Z" fill="#E8DAD5"/>
<path d="M376.707 193.622L315.877 193.847L315.324 191.72L376.151 191.494L376.707 193.622Z" fill="#E8DAD5"/>
<path d="M393.433 222.872L314.423 223.164L313.867 221.036L392.877 220.745L393.433 222.872Z" fill="#E8DAD5"/>
<path d="M395.259 229.878L316.249 230.172L315.693 228.045L394.703 227.753L395.259 229.878Z" fill="#E8DAD5"/>
<path d="M397.086 236.887L318.077 237.178L317.523 235.051L396.53 234.759L397.086 236.887Z" fill="#E8DAD5"/>
<path d="M398.914 243.892L319.905 244.187L319.352 242.059L398.358 241.768L398.914 243.892Z" fill="#E8DAD5"/>
<path d="M400.74 250.901L321.731 251.193L321.178 249.068L400.184 248.774L400.74 250.901Z" fill="#E8DAD5"/>
<path d="M405.186 267.953L326.176 268.247L325.623 266.12L404.633 265.828L405.186 267.953Z" fill="#E8DAD5"/>
<path d="M407.012 274.961L328.002 275.253L327.449 273.128L406.459 272.834L407.012 274.961Z" fill="#E8DAD5"/>
<path d="M408.838 281.97L329.829 282.262L329.275 280.134L408.285 279.843L408.838 281.97Z" fill="#E8DAD5"/>
<path d="M410.664 288.976L331.655 289.27L331.102 287.143L410.111 286.851L410.664 288.976Z" fill="#E8DAD5"/>
<path d="M412.492 295.984L333.486 296.276L332.93 294.148L411.939 293.857L412.492 295.984Z" fill="#E8DAD5"/>
<path d="M274.385 181.813L297.307 181.726L292.291 162.49L274.385 181.813Z" fill="#B47764"/>
<path d="M493.578 412.477H605.85C610.042 412.477 614.063 414.146 617.027 417.116C619.991 420.086 621.656 424.114 621.656 428.314V435.888C621.656 440.183 619.953 444.302 616.922 447.339C613.891 450.376 609.78 452.082 605.493 452.082H493.578V412.477Z" fill="#FCECDB"/>
<path d="M717.179 428.772V434.731C717.18 437.009 716.732 439.265 715.862 441.371C714.992 443.476 713.716 445.389 712.107 447C710.499 448.611 708.59 449.889 706.488 450.76C704.387 451.632 702.135 452.08 699.861 452.079H490.151C489.821 452.08 489.495 452.015 489.19 451.889C488.885 451.762 488.608 451.577 488.375 451.344C488.141 451.11 487.956 450.833 487.83 450.528C487.704 450.223 487.639 449.895 487.639 449.565V448.673C487.639 448.343 487.704 448.015 487.83 447.71C487.956 447.405 488.141 447.128 488.375 446.894C488.608 446.661 488.885 446.475 489.19 446.349C489.495 446.223 489.821 446.158 490.151 446.159H618.002C620.376 443.264 621.672 439.632 621.669 435.885V428.305C621.677 424.699 620.448 421.199 618.189 418.392H490.151C489.821 418.393 489.494 418.328 489.189 418.201C488.884 418.075 488.607 417.89 488.374 417.656C488.14 417.422 487.955 417.144 487.829 416.839C487.703 416.533 487.638 416.206 487.639 415.875V414.986C487.638 414.655 487.703 414.328 487.829 414.022C487.955 413.717 488.14 413.439 488.374 413.205C488.607 412.971 488.884 412.786 489.189 412.66C489.494 412.533 489.821 412.468 490.151 412.469H700.918C703.055 412.466 705.17 412.886 707.144 413.705C709.119 414.523 710.912 415.723 712.423 417.237C713.933 418.75 715.131 420.547 715.947 422.525C716.763 424.503 717.182 426.623 717.179 428.764V428.772Z" fill="#699DEE"/>
<path d="M716.554 424.281H621.139C620.574 422.134 619.564 420.131 618.175 418.401H490.151C489.821 418.401 489.494 418.336 489.189 418.21C488.884 418.084 488.607 417.898 488.374 417.664C488.14 417.431 487.955 417.153 487.829 416.847C487.703 416.542 487.638 416.214 487.639 415.884V414.995C487.638 414.664 487.703 414.336 487.829 414.031C487.955 413.725 488.14 413.448 488.374 413.214C488.607 412.98 488.884 412.795 489.189 412.668C489.494 412.542 489.821 412.477 490.151 412.477H700.918C704.45 412.477 707.886 413.629 710.707 415.759C713.528 417.888 715.58 420.879 716.554 424.281Z" fill="#548EE2"/>
<path d="M493.578 432.28L509.108 432.947L493.578 433.345V432.28Z" fill="#F4D2B8"/>
<path d="M493.578 438.492L530.52 439.159L493.578 439.56V438.492Z" fill="#F4D2B8"/>
<path d="M639.406 482.799H520.271C516.068 482.799 512.038 481.126 509.066 478.149C506.094 475.171 504.425 471.133 504.425 466.922C504.425 464.963 504.81 463.023 505.558 461.213C506.307 459.403 507.403 457.759 508.786 456.374C510.169 454.988 511.81 453.889 513.616 453.14C515.423 452.39 517.359 452.004 519.315 452.004H639.406V482.799Z" fill="#2B478B"/>
<path d="M768.155 482.799H632.569C628.463 482.799 624.526 481.165 621.622 478.256C618.719 475.347 617.088 471.402 617.088 467.289V467.165C617.088 463.142 618.683 459.285 621.522 456.441C624.361 453.596 628.211 451.998 632.226 451.998H768.158V482.799H768.155Z" fill="#FCECDB"/>
<path d="M608.031 482.802H772.862C773.473 482.802 774.059 482.558 774.491 482.125C774.924 481.692 775.167 481.105 775.167 480.492C775.167 479.88 774.924 479.292 774.491 478.859C774.059 478.426 773.473 478.183 772.862 478.183H608.031C607.42 478.183 606.834 478.426 606.402 478.859C605.969 479.292 605.727 479.88 605.727 480.492C605.727 481.105 605.969 481.692 606.402 482.125C606.834 482.558 607.42 482.802 608.031 482.802Z" fill="#2B478B"/>
<path d="M608.031 456.594H772.862C773.473 456.594 774.059 456.351 774.491 455.917C774.924 455.484 775.167 454.897 775.167 454.285C775.167 453.672 774.924 453.085 774.491 452.652C774.059 452.219 773.473 451.975 772.862 451.975H608.031C607.42 451.975 606.834 452.219 606.402 452.652C605.969 453.085 605.727 453.672 605.727 454.285C605.727 454.897 605.969 455.484 606.402 455.917C606.834 456.351 607.42 456.594 608.031 456.594Z" fill="#2B478B"/>
<path d="M768.155 467.399L749.84 467.915L768.155 468.23V467.399Z" fill="#F4D2B8"/>
<path d="M768.154 460.309L724.58 460.829L768.154 461.14V460.309Z" fill="#F4D2B8"/>
<path d="M725.029 460.725C725.029 460.725 726.896 462.047 727.513 464.223C727.628 464.62 727.694 465.029 727.709 465.441C727.813 468.328 727.709 474.872 727.709 474.872L733.22 471.602L738.721 474.872V466.007C738.721 464.33 738.248 462.699 737.372 461.631C736.949 461.114 736.433 460.725 735.848 460.725H725.029Z" fill="#699DEE"/>
<path d="M725.029 460.725C725.029 460.725 726.896 462.047 727.513 464.223L738.562 464.353C738.562 464.353 738.13 461.239 735.848 460.725H725.029Z" fill="#568CDB"/>
<path d="M740.424 412.561H618.701C613.914 412.561 609.323 410.656 605.938 407.264C602.553 403.873 600.651 399.273 600.651 394.476V384.988C600.651 382.666 601.107 380.366 601.994 378.221C602.881 376.075 604.182 374.126 605.82 372.484C607.459 370.842 609.405 369.539 611.546 368.651C613.688 367.762 615.983 367.305 618.301 367.305H740.424V412.561Z" fill="#FCECDB"/>
<path d="M603.515 384.864V394.603C603.533 396.58 604.069 398.516 605.071 400.219C606.072 401.921 607.503 403.33 609.22 404.303C610.935 405.28 612.874 405.794 614.847 405.792H747.034C747.777 405.792 748.491 406.088 749.017 406.614C749.543 407.141 749.839 407.856 749.84 408.601V409.755C749.839 410.501 749.543 411.215 749.017 411.742C748.491 412.268 747.777 412.564 747.034 412.564H518.677C513.547 412.564 508.628 410.522 505.001 406.888C501.374 403.254 499.336 398.325 499.336 393.186V385.502C499.336 380.679 501.248 376.053 504.652 372.643C508.056 369.232 512.673 367.316 517.487 367.316H747.025C747.393 367.316 747.758 367.388 748.099 367.529C748.439 367.67 748.748 367.877 749.009 368.138C749.27 368.399 749.476 368.708 749.618 369.049C749.759 369.39 749.831 369.756 749.831 370.125V371.279C749.831 372.025 749.536 372.74 749.009 373.268C748.483 373.795 747.769 374.091 747.025 374.091H614.435C612.925 374.089 611.431 374.401 610.048 375.005C608.664 375.61 607.42 376.495 606.393 377.604C604.56 379.577 603.533 382.168 603.515 384.864Z" fill="#B5453C"/>
<path d="M740.423 389.933L723.477 390.695L740.423 391.151V389.933Z" fill="#F4D2B8"/>
<path d="M740.423 379.518L700.107 380.28L740.423 380.736V379.518Z" fill="#F4D2B8"/>
<path d="M700.523 380.127C700.523 380.127 703.186 381.57 704.064 383.923C704.232 384.344 704.329 384.79 704.352 385.242C704.499 388.374 704.352 395.469 704.352 395.469L712.209 391.922L720.043 395.469V385.854C720.043 384.038 719.372 382.269 718.121 381.111C717.549 380.52 716.773 380.168 715.952 380.127H700.523Z" fill="#F99746"/>
<path d="M700.523 380.127C700.523 380.127 703.186 381.57 704.064 383.923L719.807 384.061C719.807 384.061 719.19 380.684 715.94 380.127H700.523Z" fill="#ED7D2B"/>
<path d="M620.818 350.524C627.784 362.674 636.546 367.362 636.546 367.362H673.004C673.004 367.362 615.502 341.255 620.818 350.524Z" fill="#372E16"/>
<path d="M648.829 444.525C649.779 445.616 649.9 446.834 649.431 448.136C649.432 448.143 649.432 448.149 649.431 448.156C648.567 450.564 645.685 453.251 642.352 455.95C641.925 456.294 641.548 456.608 641.217 456.9L640.96 457.128L640.764 457.307C637.653 460.179 638.825 460.837 633.233 466.671C626.86 473.31 622.472 473.434 621.222 472.828C620.167 472.312 622.313 468.787 624.679 464.826C624.794 464.636 624.906 464.443 625.025 464.249C625.342 463.724 625.656 463.19 625.973 462.659C628.759 457.893 628.041 455.656 627.381 448.56C626.846 442.787 618.43 416.351 618.43 416.351L630.646 414.244C630.646 414.244 634.322 435.299 638.376 438.544C640.542 440.276 642.968 440.293 645.051 441.575C645.201 441.664 645.34 441.754 645.487 441.849C646.659 442.62 647.863 443.431 648.829 444.525Z" fill="#FFB27D"/>
<path d="M648.83 444.525C649.781 445.616 649.902 446.834 649.432 448.136C649.433 448.143 649.433 448.15 649.432 448.156C648.369 450.561 645.569 453.234 642.342 455.913C641.921 456.262 641.55 456.582 641.218 456.885L640.962 457.113L640.766 457.292C637.654 460.165 638.827 460.823 633.235 466.657C626.861 473.296 622.473 473.42 621.223 472.814C620.168 472.297 622.315 468.773 624.68 464.812C629.14 463.069 633.061 460.175 636.044 456.424C639.881 451.516 642.44 445.212 645.053 441.56C645.203 441.65 645.341 441.739 645.488 441.835C646.661 442.62 647.865 443.431 648.83 444.525Z" fill="#233862"/>
<path d="M550.319 436.881C549.565 440.66 544.191 440.03 538.187 438.558C532.183 437.086 533.609 438.847 525.063 437.889C516.518 436.93 513.928 433.749 513.665 432.476C513.432 431.345 517.656 430.946 522.185 430.424C522.761 430.36 523.337 430.292 523.914 430.219C529.028 429.575 532.773 426.27 537.418 423.556C541.817 420.984 548.383 410.506 548.383 410.506L560.104 411.435C560.104 411.435 553.953 420.794 551.576 424.864C550.175 427.257 550.25 430.421 550.423 432.866C550.501 434.194 550.582 435.55 550.319 436.881Z" fill="#FFB27D"/>
<path d="M538.193 438.558C532.186 437.089 533.615 438.847 525.069 437.888C516.524 436.93 513.934 433.749 513.671 432.476C513.438 431.344 517.662 430.946 522.191 430.424L522.234 430.513C525.896 432.867 530.125 434.184 534.473 434.323C540.27 434.465 546.413 432.799 550.415 432.88C550.507 434.208 550.593 435.565 550.325 436.895C549.565 440.66 544.191 440.03 538.193 438.558Z" fill="#233862"/>
<path d="M595.24 361.797L606.189 391.336L620.493 429.904C620.493 429.904 624.374 430.279 628.091 429.208C631.514 428.215 635.441 425.623 635.441 425.623C635.441 425.623 631.471 384.212 624.06 360.44C622.162 354.338 620.027 349.405 617.684 346.625C606.203 333.026 595.24 361.797 595.24 361.797Z" fill="#372E16"/>
<path d="M606.375 314.886C613.552 312.577 634.034 315.544 654.588 319.58L658.91 312.464L703.328 309C703.328 309 717.988 341.567 709.955 362.316C708.774 365.368 706.431 367.325 702.435 367.388H701.787C701.787 367.388 675.35 367.388 666.764 367.388C644.674 367.388 620.014 352.173 616.822 351.535C611.601 350.487 609.512 360.951 604.292 371.938C599.071 382.924 555.191 420.566 555.191 420.566C555.191 420.566 548.45 420.632 545.664 419.584C542.67 418.462 541.572 416.986 541.572 416.986C541.572 416.986 590.186 320.12 606.375 314.886Z" fill="#473B1E"/>
<path d="M659.159 251.176C674.976 259.902 707.063 277.99 707.23 277.874C707.23 277.874 719.026 282.325 725.716 277.874C736.869 270.453 742.85 250.483 722.454 233.296C712.281 224.722 705.055 222.638 703.957 208.95C703.361 201.525 693.231 177.021 676.399 179.287C674.99 179.474 666.333 179.881 660.642 182.875C646.144 190.504 635.444 247.798 659.159 251.176Z" fill="#233862"/>
<path d="M672.415 243.748C672.346 243.792 680.194 246.479 685.449 244.147C690.388 241.961 694.13 233.818 694.055 233.815C691.811 233.711 689.342 231.743 687.443 218.828L686.487 219.171L670.398 224.971C670.398 224.971 671.551 230.143 672.317 235.074C672.954 239.202 673.294 243.162 672.415 243.748Z" fill="#FFB27D"/>
<path d="M670.398 224.971C670.398 224.971 671.551 230.144 672.317 235.074C681.56 233.405 685.184 224.183 686.487 219.177L670.398 224.971Z" fill="#ED975D"/>
<path d="M668.005 230.106C668.005 230.106 690.014 227.144 687.962 213.439C685.911 199.733 687.372 190.123 673.231 191.434C659.09 192.744 657.151 198.382 656.725 203.125C656.298 207.867 662.225 230.522 668.005 230.106Z" fill="#FFB27D"/>
<path d="M657.525 195.611C657.525 195.611 671.617 207.778 681.2 208.759C690.782 209.741 694.413 206.655 694.413 206.655C690.587 203.227 687.506 199.046 685.363 194.372C684.875 193.273 684.102 192.325 683.126 191.625C682.149 190.925 681.004 190.5 679.808 190.392C672.965 189.8 659.992 189.531 657.525 195.611Z" fill="#233862"/>
<path d="M666.332 194.522C666.332 194.522 661.618 199.089 660.135 202.475C658.694 205.743 658.273 213.56 659.414 216.666C659.414 216.666 652.07 202.357 656.228 195.406C660.642 188.036 666.332 194.522 666.332 194.522Z" fill="#233862"/>
<path d="M653.879 276.231C654.545 320.87 654.064 311.544 658.936 315.778C660.111 316.8 663.413 317.406 667.758 317.695C681.42 318.604 705.434 316.347 706.348 313.818C709.5 305.066 707.275 302.347 709.903 288.947C710.191 287.521 710.517 285.98 710.914 284.3C713.107 275.094 715.236 271.965 707.457 257.165C700.407 243.771 693.08 232.9 692.42 233.293C673.814 244.36 672.313 235.059 672.313 235.059C672.313 235.059 653.554 254.458 653.879 276.231Z" fill="#F6D51F"/>
<path d="M606.188 391.336L620.492 429.904C620.492 429.904 624.373 430.279 628.09 429.208C631.513 428.215 635.44 425.623 635.44 425.623C635.44 425.623 631.469 384.212 624.059 360.44L606.188 391.336Z" fill="#473B1E"/>
<path d="M672.316 235.068C672.316 235.068 653.171 238.318 650.924 246.58L635.443 303.392C635.443 303.392 645.176 305.144 649.673 300.641C654.171 296.138 665.321 258.842 665.321 258.842L672.316 235.068Z" fill="#F6D51F"/>
<path d="M667.758 317.695C681.42 318.604 705.434 316.347 706.348 313.818C709.5 305.066 707.275 302.347 709.903 288.947L703.314 270.354C703.314 270.354 704.403 291.057 698.309 296.501C692.216 301.946 673.362 307.014 670.4 311.564C668.971 313.746 668.032 315.937 667.758 317.695Z" fill="#E4C92F"/>
<path d="M683.402 308.989C683.402 308.989 669.924 305.981 667.749 307.179C665.574 308.377 660.258 312.741 659.593 314.26C658.927 315.778 664.436 313.105 666.219 312.626C667.372 312.314 670.434 313.376 671.947 313.881C678.305 316.006 682.204 314.915 682.204 314.915L683.402 308.989Z" fill="#FFB27D"/>
<path d="M692.439 233.296C692.439 233.296 710.536 234.413 716.802 243.168C725.621 255.491 743.116 308.013 733.089 315.019C721.798 322.906 681.698 317.08 681.698 317.08C681.698 317.08 680.364 310.834 682.22 307.808C684.075 304.783 714.25 299.905 715.641 298.508C717.033 297.111 698.236 271.304 698.236 267.118C698.236 262.933 692.439 233.296 692.439 233.296Z" fill="#F6D51F"/>
<path d="M667.104 310.937C667.104 310.937 664.28 314.589 663.358 315.022C662.892 315.275 662.363 315.389 661.834 315.351L663.736 311.919L667.104 310.937Z" fill="#FFB27D"/>
<path d="M667.758 307.179L659.547 311.174C659.547 311.174 659.895 311.751 660.907 311.699C661.918 311.647 664.468 310.721 664.468 310.721L667.758 307.179Z" fill="#FFB27D"/>
<path d="M663.357 320.613H598.407L578.867 271.936H643.719L663.357 320.613Z" fill="#00503E"/>
<path d="M597.643 318.717H683.411V320.613H598.406L597.643 318.717Z" fill="#00503E"/>
<path d="M614.799 296.276C614.309 294.564 615.298 293.176 617.006 293.176C618.715 293.176 620.495 294.564 620.985 296.276C621.475 297.988 620.487 299.373 618.778 299.373C617.07 299.373 615.289 297.985 614.799 296.276Z" fill="white"/>
<path d="M73.1286 339.731L71.7456 340.693C71.0349 341.185 70.1585 341.374 69.3085 341.22C68.4585 341.066 67.7041 340.58 67.2107 339.87L59.1665 328.24C58.6755 327.528 58.4862 326.65 58.6401 325.798C58.794 324.946 59.2786 324.19 59.9877 323.696L61.9699 322.322C62.0385 322.272 62.1163 322.236 62.1988 322.217C62.2814 322.198 62.3669 322.195 62.4505 322.209C62.5341 322.223 62.614 322.254 62.6856 322.3C62.7572 322.345 62.8189 322.405 62.8673 322.474C62.9156 322.544 62.9495 322.623 62.9671 322.706C62.9847 322.789 62.9855 322.875 62.9696 322.958C62.9536 323.042 62.9212 323.121 62.8742 323.192C62.8272 323.262 62.7666 323.323 62.6959 323.37L60.7166 324.747C60.2844 325.047 59.9889 325.507 59.8949 326.026C59.8009 326.544 59.9161 327.079 60.2153 327.512L68.2594 339.14C68.5592 339.573 69.0183 339.869 69.5358 339.963C70.0533 340.057 70.5869 339.942 71.0196 339.642L72.4025 338.681C72.8347 338.38 73.1302 337.92 73.2242 337.402C73.3182 336.883 73.203 336.349 72.9038 335.915L67.5622 328.196C67.4659 328.057 67.4288 327.885 67.4591 327.718C67.4893 327.552 67.5845 327.404 67.7235 327.307C67.8626 327.211 68.0342 327.174 68.2007 327.204C68.3671 327.234 68.5146 327.33 68.6109 327.469L73.9497 335.188C74.1936 335.54 74.3658 335.937 74.4565 336.356C74.5472 336.775 74.5547 337.208 74.4784 337.63C74.4022 338.052 74.2437 338.455 74.0121 338.815C73.7805 339.176 73.4803 339.487 73.1286 339.731Z" fill="#00503E"/>
<path d="M81.9471 351.2L79.4664 352.932C77.1615 354.531 73.9 353.821 72.1915 351.35L60.0907 333.869C60.0052 333.729 59.9762 333.562 60.0097 333.402C60.0431 333.242 60.1365 333.1 60.2707 333.007C60.4048 332.914 60.5696 332.875 60.7311 332.9C60.8926 332.924 61.0387 333.009 61.1394 333.138L73.2402 350.623C74.5483 352.516 77.0174 353.079 78.7403 351.884L81.221 350.152C82.9497 348.954 83.2839 346.44 81.973 344.549L68.1982 324.631C66.8873 322.741 64.421 322.175 62.6952 323.37C62.6267 323.42 62.5488 323.456 62.4663 323.475C62.3838 323.494 62.2982 323.497 62.2146 323.483C62.131 323.469 62.0511 323.438 61.9795 323.392C61.908 323.347 61.8462 323.287 61.7979 323.218C61.7495 323.148 61.7156 323.069 61.698 322.986C61.6805 322.903 61.6796 322.817 61.6956 322.734C61.7115 322.65 61.744 322.571 61.7909 322.5C61.8379 322.43 61.8985 322.369 61.9692 322.322C64.2741 320.723 67.5356 321.433 69.2441 323.904L83.0217 343.822C84.7302 346.29 84.2491 349.601 81.9471 351.2Z" fill="#00503E"/>
<path d="M98.5864 442.51L98.8745 444.972C99.0267 446.237 98.672 447.51 97.8883 448.513C97.1045 449.516 95.9558 450.166 94.694 450.321L74.0794 452.841C72.8173 452.994 71.5464 452.638 70.5456 451.853C69.5447 451.068 68.8956 449.917 68.7407 448.653L68.3143 445.125C68.2926 444.882 68.3664 444.639 68.52 444.449C68.6737 444.259 68.8951 444.137 69.1374 444.107C69.3797 444.078 69.6238 444.145 69.8181 444.292C70.0124 444.44 70.1416 444.658 70.1784 444.9L70.6048 448.428C70.6992 449.196 71.094 449.896 71.7026 450.374C72.3112 450.852 73.0841 451.069 73.8518 450.976L94.4779 448.468C95.2453 448.373 95.944 447.978 96.4209 447.368C96.8978 446.758 97.1139 445.984 97.022 445.215L96.7339 442.752C96.6402 441.983 96.2457 441.282 95.6369 440.804C95.0282 440.326 94.255 440.109 93.4868 440.201L79.7956 441.866C79.5488 441.896 79.3003 441.826 79.1047 441.673C78.9091 441.519 78.7824 441.294 78.7526 441.046C78.7228 440.799 78.7923 440.55 78.9458 440.354C79.0992 440.158 79.3241 440.031 79.5709 440.001L93.2621 438.336C94.5195 438.188 95.7843 438.544 96.7814 439.325C97.7785 440.107 98.4272 441.252 98.5864 442.51Z" fill="#FF7E82"/>
<path d="M119.531 438.884L120.067 443.298C120.562 447.397 117.399 451.167 113.017 451.698L82.0098 455.468C81.8876 455.483 81.7637 455.474 81.645 455.441C81.5264 455.408 81.4154 455.352 81.3185 455.276C81.2215 455.2 81.1404 455.105 81.0798 454.998C81.0192 454.89 80.9804 454.772 80.9654 454.65C80.9505 454.527 80.9597 454.403 80.9927 454.284C81.0257 454.165 81.0817 454.054 81.1575 453.957C81.2334 453.86 81.3276 453.779 81.4348 453.718C81.5419 453.657 81.66 453.618 81.7822 453.603L112.792 449.833C116.148 449.423 118.574 446.595 118.203 443.526L117.67 439.109C117.298 436.041 114.264 433.873 110.908 434.283L75.5878 438.578C72.2312 438.985 69.8024 441.814 70.177 444.886C70.1986 445.129 70.1248 445.372 69.9712 445.562C69.8176 445.752 69.5961 445.874 69.3539 445.903C69.1116 445.933 68.8674 445.866 68.6731 445.718C68.4788 445.57 68.3496 445.353 68.3129 445.111C67.8173 441.012 70.9779 437.245 75.363 436.711L110.68 432.415C115.065 431.884 119.035 434.785 119.531 438.884Z" fill="#FF7E82"/>
<path d="M455.648 150.749C456.01 149.21 455.059 147.668 453.523 147.305C451.986 146.941 450.447 147.894 450.084 149.434C449.722 150.973 450.673 152.515 452.209 152.878C453.746 153.242 455.285 152.288 455.648 150.749Z" fill="#F99746"/>
<path d="M705.879 131.662L667.972 111.834C667.79 111.739 667.63 111.609 667.499 111.453C667.368 111.296 667.269 111.115 667.208 110.919C667.147 110.724 667.125 110.519 667.143 110.315C667.161 110.112 667.219 109.914 667.314 109.733L680.654 84.2181C680.749 84.037 680.879 83.8763 681.035 83.7453C681.192 83.6142 681.374 83.5153 681.569 83.4543C681.764 83.3933 681.969 83.3713 682.173 83.3895C682.376 83.4078 682.574 83.466 682.755 83.5608L720.662 103.389C721.027 103.582 721.3 103.911 721.423 104.305C721.546 104.698 721.509 105.124 721.32 105.49L707.98 131.005C707.885 131.186 707.755 131.347 707.598 131.478C707.441 131.609 707.26 131.708 707.065 131.769C706.87 131.83 706.665 131.852 706.461 131.834C706.258 131.815 706.06 131.757 705.879 131.662Z" fill="#FF9092"/>
<path d="M696.222 94.8562L684.688 88.8193C684.507 88.7245 684.347 88.595 684.215 88.4381C684.084 88.2812 683.986 88.1 683.925 87.9049C683.863 87.7098 683.841 87.5046 683.86 87.301C683.878 87.0974 683.936 86.8994 684.031 86.7183L686.047 82.8348C686.142 82.6537 686.272 82.493 686.429 82.362C686.585 82.2309 686.767 82.132 686.962 82.071C687.157 82.01 687.362 81.988 687.566 82.0062C687.769 82.0245 687.967 82.0827 688.148 82.1775L699.694 88.2265C699.875 88.3213 700.036 88.4508 700.167 88.6077C700.298 88.7646 700.397 88.9458 700.458 89.1409C700.519 89.336 700.541 89.5412 700.522 89.7448C700.504 89.9484 700.446 90.1464 700.351 90.3275L698.335 94.2069C698.239 94.3885 698.108 94.5494 697.95 94.6804C697.792 94.8114 697.609 94.9099 697.413 94.9702C697.217 95.0305 697.01 95.0515 696.806 95.0319C696.602 95.0124 696.403 94.9526 696.222 94.8562Z" fill="#FF9092"/>
<path d="M708.029 131.19C707.819 131.514 707.497 131.747 707.124 131.846C706.752 131.946 706.356 131.903 706.013 131.727L667.836 111.765C667.493 111.586 667.229 111.286 667.096 110.923C666.962 110.559 666.969 110.16 667.114 109.801L676.663 86.1981C676.744 85.996 676.866 85.8131 677.022 85.6611C677.178 85.5091 677.363 85.3914 677.567 85.3154C677.771 85.2395 677.989 85.207 678.206 85.2201C678.423 85.2332 678.635 85.2916 678.829 85.3915L721.236 107.571C721.428 107.672 721.596 107.811 721.731 107.98C721.865 108.149 721.963 108.344 722.018 108.553C722.073 108.762 722.084 108.981 722.05 109.194C722.016 109.407 721.938 109.612 721.821 109.793L708.029 131.19Z" fill="#FA5457"/>
</svg>
